<svg width="840" height="480" viewBox="0 0 840 480" xmlns="http://www.w3.org/2000/svg" role="img" aria-labelledby="title description">
<title id="title">GISA cumulative GitHub contribution trend</title>
<desc id="description">Cumulative total, GISA-OSS, and external contributions over time.</desc>

<defs>
  <linearGradient id="cardGradient" x1="0" y1="0" x2="1" y2="1">
    <stop offset="0%" stop-color="#0d1117"/>
    <stop offset="56%" stop-color="#111827"/>
    <stop offset="100%" stop-color="#052e2b"/>
  </linearGradient>
  <radialGradient id="glow" cx="84%" cy="16%" r="70%">
    <stop offset="0%" stop-color="#58a6ff" stop-opacity="0.32"/>
    <stop offset="48%" stop-color="#3fb950" stop-opacity="0.11"/>
    <stop offset="100%" stop-color="#0d1117" stop-opacity="0"/>
  </radialGradient>

  <linearGradient id="areaGradient" x1="0" y1="0" x2="0" y2="1">
    <stop offset="0%" stop-color="#3fb950" stop-opacity="0.24"/>
    <stop offset="100%" stop-color="#3fb950" stop-opacity="0.02"/>
  </linearGradient>
  <clipPath id="plotClip"><rect x="66" y="184" width="732" height="190" rx="12"/></clipPath>
</defs>

<rect width="840" height="480" rx="24" fill="url(#cardGradient)"/>
<rect width="840" height="480" rx="24" fill="url(#glow)"/>
<rect x="1" y="1" width="838" height="478" rx="23" fill="none" stroke="#30363d"/>

<g aria-hidden="true" opacity="0.88">
  <circle cx="716" cy="42" r="5" fill="#3fb950"/>
  <circle cx="772" cy="58" r="3.5" fill="#58a6ff"/>
  <circle cx="704" cy="88" r="3" fill="#f2cc60"/>
  <circle cx="786" cy="103" r="2.5" fill="#f778ba"/>
  <path d="M716 42 L772 58 L704 88 L786 103" fill="none" stroke="#8b949e" stroke-width="1.2" opacity="0.38"/>
</g>


<text x="36" y="42" fill="#3fb950" font-size="12" font-weight="700" letter-spacing="2" font-family="Segoe UI, Liberation Sans, sans-serif">GISA OPEN-SOURCE-SOFTWARE</text>
<text x="36" y="78" fill="#f0f6fc" font-size="26" font-weight="800" font-family="Segoe UI, Liberation Sans, sans-serif">GitHub contributions</text>
<text x="36" y="103" fill="#8b949e" font-size="13" font-family="Segoe UI, Liberation Sans, sans-serif">Cumulative organization activity since 2026</text>
<text x="36" y="156" fill="#3fb950" font-size="38" font-weight="800" font-family="Segoe UI, Liberation Sans, sans-serif">212</text>
<text x="118" y="154" fill="#8b949e" font-size="13" font-weight="700" font-family="Segoe UI, Liberation Sans, sans-serif">total contributions</text>
<rect x="66" y="184" width="732" height="190" rx="12" fill="#161b22" stroke="#30363d"/>
<line x1="66" y1="374.00" x2="798" y2="374.00" stroke="#30363d" stroke-width="1" opacity="0.72"/><text x="54" y="378.00" text-anchor="end" fill="#8b949e" font-size="11" font-family="Segoe UI, Liberation Sans, sans-serif">0</text><line x1="66" y1="310.67" x2="798" y2="310.67" stroke="#30363d" stroke-width="1" opacity="0.72"/><text x="54" y="314.67" text-anchor="end" fill="#8b949e" font-size="11" font-family="Segoe UI, Liberation Sans, sans-serif">100</text><line x1="66" y1="247.33" x2="798" y2="247.33" stroke="#30363d" stroke-width="1" opacity="0.72"/><text x="54" y="251.33" text-anchor="end" fill="#8b949e" font-size="11" font-family="Segoe UI, Liberation Sans, sans-serif">200</text><line x1="66" y1="184.00" x2="798" y2="184.00" stroke="#30363d" stroke-width="1" opacity="0.72"/><text x="54" y="188.00" text-anchor="end" fill="#8b949e" font-size="11" font-family="Segoe UI, Liberation Sans, sans-serif">300</text><line x1="66.00" y1="184" x2="66.00" y2="374" stroke="#30363d" stroke-width="1" opacity="0.36"/><text x="66.00" y="397" text-anchor="middle" fill="#8b949e" font-size="11" font-family="Segoe UI, Liberation Sans, sans-serif">Jan</text><line x1="177.24" y1="184" x2="177.24" y2="374" stroke="#30363d" stroke-width="1" opacity="0.36"/><text x="177.24" y="397" text-anchor="middle" fill="#8b949e" font-size="11" font-family="Segoe UI, Liberation Sans, sans-serif">Feb</text><line x1="277.71" y1="184" x2="277.71" y2="374" stroke="#30363d" stroke-width="1" opacity="0.36"/><text x="277.71" y="397" text-anchor="middle" fill="#8b949e" font-size="11" font-family="Segoe UI, Liberation Sans, sans-serif">Mar</text><line x1="388.94" y1="184" x2="388.94" y2="374" stroke="#30363d" stroke-width="1" opacity="0.36"/><text x="388.94" y="397" text-anchor="middle" fill="#8b949e" font-size="11" font-family="Segoe UI, Liberation Sans, sans-serif">Apr</text><line x1="496.59" y1="184" x2="496.59" y2="374" stroke="#30363d" stroke-width="1" opacity="0.36"/><text x="496.59" y="397" text-anchor="middle" fill="#8b949e" font-size="11" font-family="Segoe UI, Liberation Sans, sans-serif">May</text><line x1="607.82" y1="184" x2="607.82" y2="374" stroke="#30363d" stroke-width="1" opacity="0.36"/><text x="607.82" y="397" text-anchor="middle" fill="#8b949e" font-size="11" font-family="Segoe UI, Liberation Sans, sans-serif">Jun</text><line x1="715.47" y1="184" x2="715.47" y2="374" stroke="#30363d" stroke-width="1" opacity="0.36"/><text x="715.47" y="397" text-anchor="middle" fill="#8b949e" font-size="11" font-family="Segoe UI, Liberation Sans, sans-serif">Jul</text><line x1="798.00" y1="184" x2="798.00" y2="374" stroke="#30363d" stroke-width="1" opacity="0.36"/><text x="798.00" y="397" text-anchor="middle" fill="#8b949e" font-size="11" font-family="Segoe UI, Liberation Sans, sans-serif">Jul</text>
<g clip-path="url(#plotClip)">
  <path d="M 66.00 374.00 L 66.00 374.00 L 69.59 374.00 L 73.18 374.00 L 76.76 374.00 L 80.35 373.37 L 83.94 373.37 L 87.53 372.73 L 91.12 372.73 L 94.71 372.10 L 98.29 372.10 L 101.88 372.10 L 105.47 371.47 L 109.06 371.47 L 112.65 371.47 L 116.24 371.47 L 119.82 371.47 L 123.41 371.47 L 127.00 371.47 L 130.59 371.47 L 134.18 371.47 L 137.76 371.47 L 141.35 371.47 L 144.94 371.47 L 148.53 371.47 L 152.12 371.47 L 155.71 371.47 L 159.29 371.47 L 162.88 371.47 L 166.47 371.47 L 170.06 371.47 L 173.65 371.47 L 177.24 371.47 L 180.82 371.47 L 184.41 371.47 L 188.00 371.47 L 191.59 371.47 L 195.18 371.47 L 198.76 371.47 L 202.35 371.47 L 205.94 371.47 L 209.53 371.47 L 213.12 371.47 L 216.71 371.47 L 220.29 371.47 L 223.88 371.47 L 227.47 371.47 L 231.06 371.47 L 234.65 371.47 L 238.24 371.47 L 241.82 371.47 L 245.41 371.47 L 249.00 371.47 L 252.59 371.47 L 256.18 371.47 L 259.76 371.47 L 263.35 371.47 L 266.94 371.47 L 270.53 371.47 L 274.12 371.47 L 277.71 371.47 L 281.29 371.47 L 284.88 371.47 L 288.47 371.47 L 292.06 371.47 L 295.65 371.47 L 299.24 371.47 L 302.82 371.47 L 306.41 371.47 L 310.00 371.47 L 313.59 370.20 L 317.18 368.93 L 320.76 363.23 L 324.35 363.23 L 327.94 363.23 L 331.53 363.23 L 335.12 361.97 L 338.71 353.73 L 342.29 352.47 L 345.88 351.20 L 349.47 351.20 L 353.06 351.20 L 356.65 349.30 L 360.24 347.40 L 363.82 347.40 L 367.41 345.50 L 371.00 341.70 L 374.59 340.43 L 378.18 340.43 L 381.76 337.90 L 385.35 333.47 L 388.94 333.47 L 392.53 333.47 L 396.12 333.47 L 399.71 333.47 L 403.29 333.47 L 406.88 333.47 L 410.47 333.47 L 414.06 332.83 L 417.65 331.57 L 421.24 331.57 L 424.82 331.57 L 428.41 331.57 L 432.00 331.57 L 435.59 331.57 L 439.18 331.57 L 442.76 329.67 L 446.35 327.13 L 449.94 327.13 L 453.53 327.13 L 457.12 327.13 L 460.71 324.60 L 464.29 319.53 L 467.88 317.63 L 471.47 317.63 L 475.06 317.63 L 478.65 317.63 L 482.24 316.37 L 485.82 316.37 L 489.41 316.37 L 493.00 314.47 L 496.59 314.47 L 500.18 311.93 L 503.76 311.93 L 507.35 310.67 L 510.94 310.67 L 514.53 310.03 L 518.12 310.03 L 521.71 309.40 L 525.29 309.40 L 528.88 309.40 L 532.47 306.23 L 536.06 304.97 L 539.65 304.97 L 543.24 304.97 L 546.82 304.97 L 550.41 304.97 L 554.00 304.97 L 557.59 304.97 L 561.18 304.97 L 564.76 298.00 L 568.35 298.00 L 571.94 298.00 L 575.53 298.00 L 579.12 298.00 L 582.71 298.00 L 586.29 298.00 L 589.88 298.00 L 593.47 298.00 L 597.06 298.00 L 600.65 298.00 L 604.24 298.00 L 607.82 298.00 L 611.41 298.00 L 615.00 298.00 L 618.59 298.00 L 622.18 298.00 L 625.76 298.00 L 629.35 298.00 L 632.94 298.00 L 636.53 298.00 L 640.12 298.00 L 643.71 297.37 L 647.29 297.37 L 650.88 297.37 L 654.47 297.37 L 658.06 297.37 L 661.65 297.37 L 665.24 296.73 L 668.82 296.73 L 672.41 296.73 L 676.00 296.73 L 679.59 296.73 L 683.18 296.73 L 686.76 296.73 L 690.35 296.73 L 693.94 296.73 L 697.53 296.73 L 701.12 296.73 L 704.71 296.73 L 708.29 296.73 L 711.88 296.73 L 715.47 296.73 L 719.06 296.73 L 722.65 296.10 L 726.24 296.10 L 729.82 285.33 L 733.41 278.37 L 737.00 273.93 L 740.59 273.93 L 744.18 271.40 L 747.76 261.90 L 751.35 261.27 L 754.94 261.27 L 758.53 261.27 L 762.12 259.37 L 765.71 259.37 L 769.29 258.10 L 772.88 258.10 L 776.47 258.10 L 780.06 258.10 L 783.65 246.07 L 787.24 244.80 L 790.82 242.90 L 794.41 242.27 L 798.00 239.73 L 798.00 374.00 Z" fill="url(#areaGradient)"/>
  <path d="M 66.00 374.00 L 69.59 374.00 L 73.18 374.00 L 76.76 374.00 L 80.35 373.37 L 83.94 373.37 L 87.53 372.73 L 91.12 372.73 L 94.71 372.10 L 98.29 372.10 L 101.88 372.10 L 105.47 371.47 L 109.06 371.47 L 112.65 371.47 L 116.24 371.47 L 119.82 371.47 L 123.41 371.47 L 127.00 371.47 L 130.59 371.47 L 134.18 371.47 L 137.76 371.47 L 141.35 371.47 L 144.94 371.47 L 148.53 371.47 L 152.12 371.47 L 155.71 371.47 L 159.29 371.47 L 162.88 371.47 L 166.47 371.47 L 170.06 371.47 L 173.65 371.47 L 177.24 371.47 L 180.82 371.47 L 184.41 371.47 L 188.00 371.47 L 191.59 371.47 L 195.18 371.47 L 198.76 371.47 L 202.35 371.47 L 205.94 371.47 L 209.53 371.47 L 213.12 371.47 L 216.71 371.47 L 220.29 371.47 L 223.88 371.47 L 227.47 371.47 L 231.06 371.47 L 234.65 371.47 L 238.24 371.47 L 241.82 371.47 L 245.41 371.47 L 249.00 371.47 L 252.59 371.47 L 256.18 371.47 L 259.76 371.47 L 263.35 371.47 L 266.94 371.47 L 270.53 371.47 L 274.12 371.47 L 277.71 371.47 L 281.29 371.47 L 284.88 371.47 L 288.47 371.47 L 292.06 371.47 L 295.65 371.47 L 299.24 371.47 L 302.82 371.47 L 306.41 371.47 L 310.00 371.47 L 313.59 370.20 L 317.18 368.93 L 320.76 363.23 L 324.35 363.23 L 327.94 363.23 L 331.53 363.23 L 335.12 361.97 L 338.71 353.73 L 342.29 352.47 L 345.88 351.20 L 349.47 351.20 L 353.06 351.20 L 356.65 349.30 L 360.24 347.40 L 363.82 347.40 L 367.41 345.50 L 371.00 341.70 L 374.59 340.43 L 378.18 340.43 L 381.76 337.90 L 385.35 333.47 L 388.94 333.47 L 392.53 333.47 L 396.12 333.47 L 399.71 333.47 L 403.29 333.47 L 406.88 333.47 L 410.47 333.47 L 414.06 332.83 L 417.65 331.57 L 421.24 331.57 L 424.82 331.57 L 428.41 331.57 L 432.00 331.57 L 435.59 331.57 L 439.18 331.57 L 442.76 329.67 L 446.35 327.13 L 449.94 327.13 L 453.53 327.13 L 457.12 327.13 L 460.71 324.60 L 464.29 319.53 L 467.88 317.63 L 471.47 317.63 L 475.06 317.63 L 478.65 317.63 L 482.24 316.37 L 485.82 316.37 L 489.41 316.37 L 493.00 314.47 L 496.59 314.47 L 500.18 311.93 L 503.76 311.93 L 507.35 310.67 L 510.94 310.67 L 514.53 310.03 L 518.12 310.03 L 521.71 309.40 L 525.29 309.40 L 528.88 309.40 L 532.47 306.23 L 536.06 304.97 L 539.65 304.97 L 543.24 304.97 L 546.82 304.97 L 550.41 304.97 L 554.00 304.97 L 557.59 304.97 L 561.18 304.97 L 564.76 298.00 L 568.35 298.00 L 571.94 298.00 L 575.53 298.00 L 579.12 298.00 L 582.71 298.00 L 586.29 298.00 L 589.88 298.00 L 593.47 298.00 L 597.06 298.00 L 600.65 298.00 L 604.24 298.00 L 607.82 298.00 L 611.41 298.00 L 615.00 298.00 L 618.59 298.00 L 622.18 298.00 L 625.76 298.00 L 629.35 298.00 L 632.94 298.00 L 636.53 298.00 L 640.12 298.00 L 643.71 297.37 L 647.29 297.37 L 650.88 297.37 L 654.47 297.37 L 658.06 297.37 L 661.65 297.37 L 665.24 296.73 L 668.82 296.73 L 672.41 296.73 L 676.00 296.73 L 679.59 296.73 L 683.18 296.73 L 686.76 296.73 L 690.35 296.73 L 693.94 296.73 L 697.53 296.73 L 701.12 296.73 L 704.71 296.73 L 708.29 296.73 L 711.88 296.73 L 715.47 296.73 L 719.06 296.73 L 722.65 296.10 L 726.24 296.10 L 729.82 285.33 L 733.41 278.37 L 737.00 273.93 L 740.59 273.93 L 744.18 271.40 L 747.76 261.90 L 751.35 261.27 L 754.94 261.27 L 758.53 261.27 L 762.12 259.37 L 765.71 259.37 L 769.29 258.10 L 772.88 258.10 L 776.47 258.10 L 780.06 258.10 L 783.65 246.07 L 787.24 244.80 L 790.82 242.90 L 794.41 242.27 L 798.00 239.73" fill="none" stroke="#3fb950" stroke-width="3.2" stroke-linejoin="round" stroke-linecap="round"/>
  <path d="M 66.00 374.00 L 69.59 374.00 L 73.18 374.00 L 76.76 374.00 L 80.35 374.00 L 83.94 374.00 L 87.53 373.37 L 91.12 373.37 L 94.71 373.37 L 98.29 373.37 L 101.88 373.37 L 105.47 373.37 L 109.06 373.37 L 112.65 373.37 L 116.24 373.37 L 119.82 373.37 L 123.41 373.37 L 127.00 373.37 L 130.59 373.37 L 134.18 373.37 L 137.76 373.37 L 141.35 373.37 L 144.94 373.37 L 148.53 373.37 L 152.12 373.37 L 155.71 373.37 L 159.29 373.37 L 162.88 373.37 L 166.47 373.37 L 170.06 373.37 L 173.65 373.37 L 177.24 373.37 L 180.82 373.37 L 184.41 373.37 L 188.00 373.37 L 191.59 373.37 L 195.18 373.37 L 198.76 373.37 L 202.35 373.37 L 205.94 373.37 L 209.53 373.37 L 213.12 373.37 L 216.71 373.37 L 220.29 373.37 L 223.88 373.37 L 227.47 373.37 L 231.06 373.37 L 234.65 373.37 L 238.24 373.37 L 241.82 373.37 L 245.41 373.37 L 249.00 373.37 L 252.59 373.37 L 256.18 373.37 L 259.76 373.37 L 263.35 373.37 L 266.94 373.37 L 270.53 373.37 L 274.12 373.37 L 277.71 373.37 L 281.29 373.37 L 284.88 373.37 L 288.47 373.37 L 292.06 373.37 L 295.65 373.37 L 299.24 373.37 L 302.82 373.37 L 306.41 373.37 L 310.00 373.37 L 313.59 372.10 L 317.18 371.47 L 320.76 366.40 L 324.35 366.40 L 327.94 366.40 L 331.53 366.40 L 335.12 365.13 L 338.71 362.60 L 342.29 362.60 L 345.88 362.60 L 349.47 362.60 L 353.06 362.60 L 356.65 360.70 L 360.24 358.80 L 363.82 358.80 L 367.41 356.90 L 371.00 353.10 L 374.59 351.83 L 378.18 351.83 L 381.76 349.30 L 385.35 344.87 L 388.94 344.87 L 392.53 344.87 L 396.12 344.87 L 399.71 344.87 L 403.29 344.87 L 406.88 344.87 L 410.47 344.87 L 414.06 344.23 L 417.65 342.97 L 421.24 342.97 L 424.82 342.97 L 428.41 342.97 L 432.00 342.97 L 435.59 342.97 L 439.18 342.97 L 442.76 341.07 L 446.35 338.53 L 449.94 338.53 L 453.53 338.53 L 457.12 338.53 L 460.71 336.00 L 464.29 330.93 L 467.88 329.03 L 471.47 329.03 L 475.06 329.03 L 478.65 329.03 L 482.24 327.77 L 485.82 327.77 L 489.41 327.77 L 493.00 325.87 L 496.59 325.87 L 500.18 325.87 L 503.76 325.87 L 507.35 324.60 L 510.94 324.60 L 514.53 323.97 L 518.12 323.97 L 521.71 323.33 L 525.29 323.33 L 528.88 323.33 L 532.47 320.17 L 536.06 318.90 L 539.65 318.90 L 543.24 318.90 L 546.82 318.90 L 550.41 318.90 L 554.00 318.90 L 557.59 318.90 L 561.18 318.90 L 564.76 311.93 L 568.35 311.93 L 571.94 311.93 L 575.53 311.93 L 579.12 311.93 L 582.71 311.93 L 586.29 311.93 L 589.88 311.93 L 593.47 311.93 L 597.06 311.93 L 600.65 311.93 L 604.24 311.93 L 607.82 311.93 L 611.41 311.93 L 615.00 311.93 L 618.59 311.93 L 622.18 311.93 L 625.76 311.93 L 629.35 311.93 L 632.94 311.93 L 636.53 311.93 L 640.12 311.93 L 643.71 311.93 L 647.29 311.93 L 650.88 311.93 L 654.47 311.93 L 658.06 311.93 L 661.65 311.93 L 665.24 311.93 L 668.82 311.93 L 672.41 311.93 L 676.00 311.93 L 679.59 311.93 L 683.18 311.93 L 686.76 311.93 L 690.35 311.93 L 693.94 311.93 L 697.53 311.93 L 701.12 311.93 L 704.71 311.93 L 708.29 311.93 L 711.88 311.93 L 715.47 311.93 L 719.06 311.93 L 722.65 311.93 L 726.24 311.93 L 729.82 311.93 L 733.41 311.93 L 737.00 311.93 L 740.59 311.93 L 744.18 311.93 L 747.76 311.93 L 751.35 311.93 L 754.94 311.93 L 758.53 311.93 L 762.12 311.93 L 765.71 311.93 L 769.29 311.93 L 772.88 311.93 L 776.47 311.93 L 780.06 311.93 L 783.65 311.93 L 787.24 311.93 L 790.82 311.93 L 794.41 311.30 L 798.00 308.77" fill="none" stroke="#58a6ff" stroke-width="2.3" stroke-linejoin="round" stroke-linecap="round"/>
  <path d="M 66.00 374.00 L 69.59 374.00 L 73.18 374.00 L 76.76 374.00 L 80.35 373.37 L 83.94 373.37 L 87.53 373.37 L 91.12 373.37 L 94.71 372.73 L 98.29 372.73 L 101.88 372.73 L 105.47 372.10 L 109.06 372.10 L 112.65 372.10 L 116.24 372.10 L 119.82 372.10 L 123.41 372.10 L 127.00 372.10 L 130.59 372.10 L 134.18 372.10 L 137.76 372.10 L 141.35 372.10 L 144.94 372.10 L 148.53 372.10 L 152.12 372.10 L 155.71 372.10 L 159.29 372.10 L 162.88 372.10 L 166.47 372.10 L 170.06 372.10 L 173.65 372.10 L 177.24 372.10 L 180.82 372.10 L 184.41 372.10 L 188.00 372.10 L 191.59 372.10 L 195.18 372.10 L 198.76 372.10 L 202.35 372.10 L 205.94 372.10 L 209.53 372.10 L 213.12 372.10 L 216.71 372.10 L 220.29 372.10 L 223.88 372.10 L 227.47 372.10 L 231.06 372.10 L 234.65 372.10 L 238.24 372.10 L 241.82 372.10 L 245.41 372.10 L 249.00 372.10 L 252.59 372.10 L 256.18 372.10 L 259.76 372.10 L 263.35 372.10 L 266.94 372.10 L 270.53 372.10 L 274.12 372.10 L 277.71 372.10 L 281.29 372.10 L 284.88 372.10 L 288.47 372.10 L 292.06 372.10 L 295.65 372.10 L 299.24 372.10 L 302.82 372.10 L 306.41 372.10 L 310.00 372.10 L 313.59 372.10 L 317.18 371.47 L 320.76 370.83 L 324.35 370.83 L 327.94 370.83 L 331.53 370.83 L 335.12 370.83 L 338.71 365.13 L 342.29 363.87 L 345.88 362.60 L 349.47 362.60 L 353.06 362.60 L 356.65 362.60 L 360.24 362.60 L 363.82 362.60 L 367.41 362.60 L 371.00 362.60 L 374.59 362.60 L 378.18 362.60 L 381.76 362.60 L 385.35 362.60 L 388.94 362.60 L 392.53 362.60 L 396.12 362.60 L 399.71 362.60 L 403.29 362.60 L 406.88 362.60 L 410.47 362.60 L 414.06 362.60 L 417.65 362.60 L 421.24 362.60 L 424.82 362.60 L 428.41 362.60 L 432.00 362.60 L 435.59 362.60 L 439.18 362.60 L 442.76 362.60 L 446.35 362.60 L 449.94 362.60 L 453.53 362.60 L 457.12 362.60 L 460.71 362.60 L 464.29 362.60 L 467.88 362.60 L 471.47 362.60 L 475.06 362.60 L 478.65 362.60 L 482.24 362.60 L 485.82 362.60 L 489.41 362.60 L 493.00 362.60 L 496.59 362.60 L 500.18 360.07 L 503.76 360.07 L 507.35 360.07 L 510.94 360.07 L 514.53 360.07 L 518.12 360.07 L 521.71 360.07 L 525.29 360.07 L 528.88 360.07 L 532.47 360.07 L 536.06 360.07 L 539.65 360.07 L 543.24 360.07 L 546.82 360.07 L 550.41 360.07 L 554.00 360.07 L 557.59 360.07 L 561.18 360.07 L 564.76 360.07 L 568.35 360.07 L 571.94 360.07 L 575.53 360.07 L 579.12 360.07 L 582.71 360.07 L 586.29 360.07 L 589.88 360.07 L 593.47 360.07 L 597.06 360.07 L 600.65 360.07 L 604.24 360.07 L 607.82 360.07 L 611.41 360.07 L 615.00 360.07 L 618.59 360.07 L 622.18 360.07 L 625.76 360.07 L 629.35 360.07 L 632.94 360.07 L 636.53 360.07 L 640.12 360.07 L 643.71 359.43 L 647.29 359.43 L 650.88 359.43 L 654.47 359.43 L 658.06 359.43 L 661.65 359.43 L 665.24 358.80 L 668.82 358.80 L 672.41 358.80 L 676.00 358.80 L 679.59 358.80 L 683.18 358.80 L 686.76 358.80 L 690.35 358.80 L 693.94 358.80 L 697.53 358.80 L 701.12 358.80 L 704.71 358.80 L 708.29 358.80 L 711.88 358.80 L 715.47 358.80 L 719.06 358.80 L 722.65 358.17 L 726.24 358.17 L 729.82 347.40 L 733.41 340.43 L 737.00 336.00 L 740.59 336.00 L 744.18 333.47 L 747.76 323.97 L 751.35 323.33 L 754.94 323.33 L 758.53 323.33 L 762.12 321.43 L 765.71 321.43 L 769.29 320.17 L 772.88 320.17 L 776.47 320.17 L 780.06 320.17 L 783.65 308.13 L 787.24 306.87 L 790.82 304.97 L 794.41 304.97 L 798.00 304.97" fill="none" stroke="#f2cc60" stroke-width="2.3" stroke-linejoin="round" stroke-linecap="round"/>
</g>
<circle cx="798" cy="239.73" r="4.5" fill="#0d1117" stroke="#3fb950" stroke-width="2.5"/><circle cx="798" cy="308.77" r="4.5" fill="#0d1117" stroke="#58a6ff" stroke-width="2.5"/><circle cx="798" cy="304.97" r="4.5" fill="#0d1117" stroke="#f2cc60" stroke-width="2.5"/>
<line x1="36" y1="424" x2="64" y2="424" stroke="#3fb950" stroke-width="3" stroke-linecap="round"/><text x="74" y="428" fill="#f0f6fc" font-size="12" font-weight="700" font-family="Segoe UI, Liberation Sans, sans-serif">Total</text><text x="148" y="428" fill="#8b949e" font-size="12" font-family="Segoe UI, Liberation Sans, sans-serif">212</text><line x1="240" y1="424" x2="268" y2="424" stroke="#58a6ff" stroke-width="3" stroke-linecap="round"/><text x="278" y="428" fill="#f0f6fc" font-size="12" font-weight="700" font-family="Segoe UI, Liberation Sans, sans-serif">GISA-OSS</text><text x="352" y="428" fill="#8b949e" font-size="12" font-family="Segoe UI, Liberation Sans, sans-serif">103</text><line x1="454" y1="424" x2="482" y2="424" stroke="#f2cc60" stroke-width="3" stroke-linecap="round"/><text x="492" y="428" fill="#f0f6fc" font-size="12" font-weight="700" font-family="Segoe UI, Liberation Sans, sans-serif">External</text><text x="566" y="428" fill="#8b949e" font-size="12" font-family="Segoe UI, Liberation Sans, sans-serif">109</text>

<line x1="36" y1="448" x2="804" y2="448" stroke="#30363d" opacity="0.75"/>
<text x="36" y="465" fill="#8b949e" font-size="11" font-family="Segoe UI, Liberation Sans, sans-serif">Data through 24 Jul 2026</text>
<text x="804" y="465" text-anchor="end" fill="#8b949e" font-size="11" font-family="Segoe UI, Liberation Sans, sans-serif">Updated weekly</text>

</svg>
